<mxfile host="app.diagrams.net" agent="Mozilla/5.0 (Macintosh; Intel Mac OS X 10_15_7) AppleWebKit/537.36 (KHTML, like Gecko) Chrome/129.0.0.0 Safari/537.36" version="24.7.17" pages="6">
  <diagram name="Страница — 1" id="hj8sGDGYCSHRjKKFbA-o">
    <mxGraphModel dx="1781" dy="639" grid="1" gridSize="10" guides="1" tooltips="1" connect="1" arrows="1" fold="1" page="1" pageScale="1" pageWidth="827" pageHeight="1169" math="0" shadow="0">
      <root>
        <mxCell id="0" />
        <mxCell id="1" parent="0" />
        <mxCell id="rqGxG4RJiT7sgIXYU1sR-1" value="Вернуть Длина S1" style="rounded=0;whiteSpace=wrap;html=1;" parent="1" vertex="1">
          <mxGeometry x="340" y="370" width="120" height="60" as="geometry" />
        </mxCell>
        <mxCell id="rqGxG4RJiT7sgIXYU1sR-2" value="Начало" style="rounded=1;whiteSpace=wrap;html=1;arcSize=50;" parent="1" vertex="1">
          <mxGeometry x="330" y="70" width="140" height="60" as="geometry" />
        </mxCell>
        <mxCell id="rqGxG4RJiT7sgIXYU1sR-5" style="edgeStyle=orthogonalEdgeStyle;rounded=0;orthogonalLoop=1;jettySize=auto;html=1;exitX=1;exitY=0.5;exitDx=0;exitDy=0;entryX=0.5;entryY=0;entryDx=0;entryDy=0;" parent="1" source="rqGxG4RJiT7sgIXYU1sR-3" target="rqGxG4RJiT7sgIXYU1sR-4" edge="1">
          <mxGeometry relative="1" as="geometry" />
        </mxCell>
        <mxCell id="rqGxG4RJiT7sgIXYU1sR-19" style="edgeStyle=orthogonalEdgeStyle;rounded=0;orthogonalLoop=1;jettySize=auto;html=1;exitX=0;exitY=0.5;exitDx=0;exitDy=0;entryX=0.5;entryY=0;entryDx=0;entryDy=0;" parent="1" source="rqGxG4RJiT7sgIXYU1sR-3" target="rqGxG4RJiT7sgIXYU1sR-7" edge="1">
          <mxGeometry relative="1" as="geometry" />
        </mxCell>
        <mxCell id="rqGxG4RJiT7sgIXYU1sR-3" value="Длина S1 = 0?" style="rhombus;whiteSpace=wrap;html=1;" parent="1" vertex="1">
          <mxGeometry x="330" y="170" width="140" height="80" as="geometry" />
        </mxCell>
        <mxCell id="rqGxG4RJiT7sgIXYU1sR-4" value="&amp;nbsp;Вернуть Длина S2" style="rounded=0;whiteSpace=wrap;html=1;" parent="1" vertex="1">
          <mxGeometry x="560" y="260" width="120" height="60" as="geometry" />
        </mxCell>
        <mxCell id="rqGxG4RJiT7sgIXYU1sR-6" value="&amp;nbsp;Да" style="text;html=1;align=center;verticalAlign=middle;whiteSpace=wrap;rounded=0;" parent="1" vertex="1">
          <mxGeometry x="550" y="180" width="60" height="30" as="geometry" />
        </mxCell>
        <mxCell id="rqGxG4RJiT7sgIXYU1sR-8" style="edgeStyle=orthogonalEdgeStyle;rounded=0;orthogonalLoop=1;jettySize=auto;html=1;exitX=1;exitY=0.5;exitDx=0;exitDy=0;entryX=0.5;entryY=0;entryDx=0;entryDy=0;" parent="1" source="rqGxG4RJiT7sgIXYU1sR-7" target="rqGxG4RJiT7sgIXYU1sR-1" edge="1">
          <mxGeometry relative="1" as="geometry" />
        </mxCell>
        <mxCell id="rqGxG4RJiT7sgIXYU1sR-12" style="edgeStyle=orthogonalEdgeStyle;rounded=0;orthogonalLoop=1;jettySize=auto;html=1;exitX=0;exitY=0.5;exitDx=0;exitDy=0;" parent="1" source="rqGxG4RJiT7sgIXYU1sR-7" target="rqGxG4RJiT7sgIXYU1sR-11" edge="1">
          <mxGeometry relative="1" as="geometry" />
        </mxCell>
        <mxCell id="rqGxG4RJiT7sgIXYU1sR-7" value="Длина S2 = 0?" style="rhombus;whiteSpace=wrap;html=1;" parent="1" vertex="1">
          <mxGeometry x="190" y="250" width="140" height="80" as="geometry" />
        </mxCell>
        <mxCell id="rqGxG4RJiT7sgIXYU1sR-9" value="&amp;nbsp;Да" style="text;html=1;align=center;verticalAlign=middle;whiteSpace=wrap;rounded=0;" parent="1" vertex="1">
          <mxGeometry x="350" y="260" width="60" height="30" as="geometry" />
        </mxCell>
        <mxCell id="rqGxG4RJiT7sgIXYU1sR-16" style="edgeStyle=orthogonalEdgeStyle;rounded=0;orthogonalLoop=1;jettySize=auto;html=1;exitX=1;exitY=0.5;exitDx=0;exitDy=0;entryX=0.5;entryY=0;entryDx=0;entryDy=0;" parent="1" source="rqGxG4RJiT7sgIXYU1sR-11" target="rqGxG4RJiT7sgIXYU1sR-14" edge="1">
          <mxGeometry relative="1" as="geometry" />
        </mxCell>
        <mxCell id="rqGxG4RJiT7sgIXYU1sR-17" style="edgeStyle=orthogonalEdgeStyle;rounded=0;orthogonalLoop=1;jettySize=auto;html=1;exitX=0;exitY=0.5;exitDx=0;exitDy=0;entryX=0.5;entryY=0;entryDx=0;entryDy=0;" parent="1" source="rqGxG4RJiT7sgIXYU1sR-11" target="rqGxG4RJiT7sgIXYU1sR-15" edge="1">
          <mxGeometry relative="1" as="geometry" />
        </mxCell>
        <mxCell id="rqGxG4RJiT7sgIXYU1sR-11" value="S1[Длина S1 - 1] = S2[Длина S2 - 1]?" style="rhombus;whiteSpace=wrap;html=1;" parent="1" vertex="1">
          <mxGeometry x="70" y="400" width="160" height="90" as="geometry" />
        </mxCell>
        <mxCell id="rqGxG4RJiT7sgIXYU1sR-14" value="cost = 0" style="rounded=0;whiteSpace=wrap;html=1;" parent="1" vertex="1">
          <mxGeometry x="240" y="500" width="120" height="60" as="geometry" />
        </mxCell>
        <mxCell id="rqGxG4RJiT7sgIXYU1sR-15" value="cost = 1" style="rounded=0;whiteSpace=wrap;html=1;" parent="1" vertex="1">
          <mxGeometry x="-60" y="500" width="120" height="60" as="geometry" />
        </mxCell>
        <mxCell id="rqGxG4RJiT7sgIXYU1sR-18" value="Да" style="text;html=1;align=center;verticalAlign=middle;whiteSpace=wrap;rounded=0;" parent="1" vertex="1">
          <mxGeometry x="250" y="420" width="60" height="30" as="geometry" />
        </mxCell>
        <mxCell id="rqGxG4RJiT7sgIXYU1sR-20" value="Вернуть fmin(&lt;div&gt;fmin(&lt;/div&gt;&lt;div&gt;Л(S1, S2, lenS1 - 1, lenS2) + 1,&amp;nbsp; Л(S1, S2, lenS1, lenS2 - 1) + 1&lt;span style=&quot;background-color: initial;&quot;&gt;),&lt;/span&gt;&lt;/div&gt;&lt;div&gt;Л(S1, S2, lenS1 - 1, lenS2 - 1) + cost)&amp;nbsp;&lt;/div&gt;" style="rounded=0;whiteSpace=wrap;html=1;" parent="1" vertex="1">
          <mxGeometry x="53" y="660" width="210" height="90" as="geometry" />
        </mxCell>
        <mxCell id="rqGxG4RJiT7sgIXYU1sR-21" value="" style="endArrow=none;html=1;rounded=0;" parent="1" edge="1">
          <mxGeometry width="50" height="50" relative="1" as="geometry">
            <mxPoint y="620" as="sourcePoint" />
            <mxPoint x="300" y="620" as="targetPoint" />
          </mxGeometry>
        </mxCell>
        <mxCell id="rqGxG4RJiT7sgIXYU1sR-25" value="" style="endArrow=none;html=1;rounded=0;entryX=0.5;entryY=1;entryDx=0;entryDy=0;" parent="1" target="rqGxG4RJiT7sgIXYU1sR-14" edge="1">
          <mxGeometry width="50" height="50" relative="1" as="geometry">
            <mxPoint x="300" y="620" as="sourcePoint" />
            <mxPoint x="290" y="470" as="targetPoint" />
          </mxGeometry>
        </mxCell>
        <mxCell id="rqGxG4RJiT7sgIXYU1sR-26" value="" style="endArrow=none;html=1;rounded=0;exitX=0.5;exitY=1;exitDx=0;exitDy=0;" parent="1" source="rqGxG4RJiT7sgIXYU1sR-15" edge="1">
          <mxGeometry width="50" height="50" relative="1" as="geometry">
            <mxPoint x="240" y="520" as="sourcePoint" />
            <mxPoint y="620" as="targetPoint" />
          </mxGeometry>
        </mxCell>
        <mxCell id="rqGxG4RJiT7sgIXYU1sR-29" value="" style="endArrow=none;html=1;rounded=0;entryX=0.5;entryY=1;entryDx=0;entryDy=0;" parent="1" target="rqGxG4RJiT7sgIXYU1sR-1" edge="1">
          <mxGeometry width="50" height="50" relative="1" as="geometry">
            <mxPoint x="400" y="800" as="sourcePoint" />
            <mxPoint x="320" y="590" as="targetPoint" />
          </mxGeometry>
        </mxCell>
        <mxCell id="rqGxG4RJiT7sgIXYU1sR-30" value="" style="endArrow=none;html=1;rounded=0;exitX=0.5;exitY=1;exitDx=0;exitDy=0;" parent="1" edge="1">
          <mxGeometry width="50" height="50" relative="1" as="geometry">
            <mxPoint x="160" y="750" as="sourcePoint" />
            <mxPoint x="160" y="800" as="targetPoint" />
          </mxGeometry>
        </mxCell>
        <mxCell id="rqGxG4RJiT7sgIXYU1sR-31" value="" style="endArrow=none;html=1;rounded=0;" parent="1" edge="1">
          <mxGeometry width="50" height="50" relative="1" as="geometry">
            <mxPoint x="160" y="800" as="sourcePoint" />
            <mxPoint x="400" y="800" as="targetPoint" />
          </mxGeometry>
        </mxCell>
        <mxCell id="rqGxG4RJiT7sgIXYU1sR-33" value="" style="endArrow=none;html=1;rounded=0;" parent="1" edge="1">
          <mxGeometry width="50" height="50" relative="1" as="geometry">
            <mxPoint x="280" y="840" as="sourcePoint" />
            <mxPoint x="620" y="840" as="targetPoint" />
          </mxGeometry>
        </mxCell>
        <mxCell id="rqGxG4RJiT7sgIXYU1sR-35" value="" style="endArrow=none;html=1;rounded=0;" parent="1" edge="1">
          <mxGeometry width="50" height="50" relative="1" as="geometry">
            <mxPoint x="280" y="800" as="sourcePoint" />
            <mxPoint x="280" y="840" as="targetPoint" />
          </mxGeometry>
        </mxCell>
        <mxCell id="rqGxG4RJiT7sgIXYU1sR-36" value="" style="endArrow=none;html=1;rounded=0;" parent="1" edge="1">
          <mxGeometry width="50" height="50" relative="1" as="geometry">
            <mxPoint x="150" y="659" as="sourcePoint" />
            <mxPoint x="150" y="620" as="targetPoint" />
          </mxGeometry>
        </mxCell>
        <mxCell id="rqGxG4RJiT7sgIXYU1sR-37" value="" style="endArrow=none;html=1;rounded=0;entryX=0.5;entryY=1;entryDx=0;entryDy=0;" parent="1" target="rqGxG4RJiT7sgIXYU1sR-4" edge="1">
          <mxGeometry width="50" height="50" relative="1" as="geometry">
            <mxPoint x="620" y="840" as="sourcePoint" />
            <mxPoint x="570" y="560" as="targetPoint" />
          </mxGeometry>
        </mxCell>
        <mxCell id="rqGxG4RJiT7sgIXYU1sR-38" value="Конец" style="rounded=1;whiteSpace=wrap;html=1;arcSize=50;" parent="1" vertex="1">
          <mxGeometry x="330" y="880" width="140" height="60" as="geometry" />
        </mxCell>
        <mxCell id="rqGxG4RJiT7sgIXYU1sR-39" value="" style="endArrow=none;html=1;rounded=0;entryX=0.5;entryY=0;entryDx=0;entryDy=0;" parent="1" target="rqGxG4RJiT7sgIXYU1sR-38" edge="1">
          <mxGeometry width="50" height="50" relative="1" as="geometry">
            <mxPoint x="400" y="840" as="sourcePoint" />
            <mxPoint x="510" y="700" as="targetPoint" />
          </mxGeometry>
        </mxCell>
        <mxCell id="rqGxG4RJiT7sgIXYU1sR-40" value="" style="endArrow=none;html=1;rounded=0;entryX=0.5;entryY=1;entryDx=0;entryDy=0;" parent="1" source="rqGxG4RJiT7sgIXYU1sR-3" target="rqGxG4RJiT7sgIXYU1sR-2" edge="1">
          <mxGeometry width="50" height="50" relative="1" as="geometry">
            <mxPoint x="610" y="190" as="sourcePoint" />
            <mxPoint x="660" y="140" as="targetPoint" />
          </mxGeometry>
        </mxCell>
        <mxCell id="D6UFzvOyfnR4_U_ZskT4-3" value="" style="shape=partialRectangle;whiteSpace=wrap;html=1;bottom=1;right=1;left=1;top=0;fillColor=none;routingCenterX=-0.5;rotation=90;" parent="1" vertex="1">
          <mxGeometry x="495" y="65" width="130" height="70" as="geometry" />
        </mxCell>
        <mxCell id="D6UFzvOyfnR4_U_ZskT4-5" value="Л(S1, S2, lenS1, lenS2) - функция для поиска Расстояния Левенштейна&amp;nbsp;" style="text;html=1;align=left;verticalAlign=middle;whiteSpace=wrap;rounded=0;" parent="1" vertex="1">
          <mxGeometry x="530" y="50" width="160" height="30" as="geometry" />
        </mxCell>
        <mxCell id="D6UFzvOyfnR4_U_ZskT4-6" value="Вход:&amp;nbsp; строки S1, S2, длины строк lenS1, lenS2" style="text;html=1;align=left;verticalAlign=middle;whiteSpace=wrap;rounded=0;" parent="1" vertex="1">
          <mxGeometry x="530" y="90" width="160" height="30" as="geometry" />
        </mxCell>
        <mxCell id="D6UFzvOyfnR4_U_ZskT4-7" value="Выход: Расстояние Левенштейна между S1, S2" style="text;html=1;align=left;verticalAlign=middle;whiteSpace=wrap;rounded=0;" parent="1" vertex="1">
          <mxGeometry x="530" y="130" width="150" height="30" as="geometry" />
        </mxCell>
        <mxCell id="D6UFzvOyfnR4_U_ZskT4-8" value="" style="endArrow=none;dashed=1;html=1;rounded=0;exitX=1;exitY=0.5;exitDx=0;exitDy=0;entryX=0.5;entryY=1;entryDx=0;entryDy=0;" parent="1" source="rqGxG4RJiT7sgIXYU1sR-2" target="D6UFzvOyfnR4_U_ZskT4-3" edge="1">
          <mxGeometry width="50" height="50" relative="1" as="geometry">
            <mxPoint x="500" y="320" as="sourcePoint" />
            <mxPoint x="550" y="270" as="targetPoint" />
          </mxGeometry>
        </mxCell>
      </root>
    </mxGraphModel>
  </diagram>
  <diagram id="OD5JMzQfNYOmQjPtApEN" name="Страница — 2">
    <mxGraphModel dx="545" dy="365" grid="1" gridSize="10" guides="1" tooltips="1" connect="1" arrows="1" fold="1" page="1" pageScale="1" pageWidth="827" pageHeight="1169" math="0" shadow="0">
      <root>
        <mxCell id="0" />
        <mxCell id="1" parent="0" />
        <mxCell id="uvi3WjUz11MRuJopwkiY-1" value="Начало" style="rounded=1;whiteSpace=wrap;html=1;arcSize=50;" vertex="1" parent="1">
          <mxGeometry x="310" y="110" width="150" height="60" as="geometry" />
        </mxCell>
        <mxCell id="uvi3WjUz11MRuJopwkiY-2" value="Выделить память под матрицу matrix размером lenS1 на lenS2" style="rounded=0;whiteSpace=wrap;html=1;" vertex="1" parent="1">
          <mxGeometry x="316" y="210" width="140" height="70" as="geometry" />
        </mxCell>
        <mxCell id="uvi3WjUz11MRuJopwkiY-4" value="i = 0" style="rounded=0;whiteSpace=wrap;html=1;" vertex="1" parent="1">
          <mxGeometry x="317" y="320" width="144" height="60" as="geometry" />
        </mxCell>
        <mxCell id="uvi3WjUz11MRuJopwkiY-5" value="&lt;div&gt;Цикл 1&lt;/div&gt;i &amp;lt;= lenS1&amp;nbsp;" style="shape=loopLimit;whiteSpace=wrap;html=1;" vertex="1" parent="1">
          <mxGeometry x="320" y="400" width="140" height="60" as="geometry" />
        </mxCell>
        <mxCell id="uvi3WjUz11MRuJopwkiY-44" value="" style="edgeStyle=orthogonalEdgeStyle;rounded=0;orthogonalLoop=1;jettySize=auto;html=1;endArrow=none;endFill=0;" edge="1" parent="1" source="uvi3WjUz11MRuJopwkiY-6" target="uvi3WjUz11MRuJopwkiY-12">
          <mxGeometry relative="1" as="geometry" />
        </mxCell>
        <mxCell id="uvi3WjUz11MRuJopwkiY-6" value="matrix[i][0] = i" style="rounded=0;whiteSpace=wrap;html=1;" vertex="1" parent="1">
          <mxGeometry x="320" y="485" width="140" height="60" as="geometry" />
        </mxCell>
        <mxCell id="uvi3WjUz11MRuJopwkiY-33" value="" style="edgeStyle=orthogonalEdgeStyle;rounded=0;orthogonalLoop=1;jettySize=auto;html=1;endArrow=none;endFill=0;" edge="1" parent="1" source="uvi3WjUz11MRuJopwkiY-8" target="uvi3WjUz11MRuJopwkiY-30">
          <mxGeometry relative="1" as="geometry" />
        </mxCell>
        <mxCell id="uvi3WjUz11MRuJopwkiY-8" value="" style="shape=loopLimit;whiteSpace=wrap;html=1;rotation=-180;" vertex="1" parent="1">
          <mxGeometry x="318" y="654" width="144" height="48" as="geometry" />
        </mxCell>
        <mxCell id="uvi3WjUz11MRuJopwkiY-11" value="Цикл 1" style="text;html=1;align=center;verticalAlign=middle;whiteSpace=wrap;rounded=0;" vertex="1" parent="1">
          <mxGeometry x="356" y="662" width="60" height="30" as="geometry" />
        </mxCell>
        <mxCell id="uvi3WjUz11MRuJopwkiY-12" value="i = i + 1" style="rounded=0;whiteSpace=wrap;html=1;" vertex="1" parent="1">
          <mxGeometry x="320" y="570" width="140" height="60" as="geometry" />
        </mxCell>
        <mxCell id="uvi3WjUz11MRuJopwkiY-19" value="" style="endArrow=none;html=1;rounded=0;entryX=0.5;entryY=1;entryDx=0;entryDy=0;exitX=0.5;exitY=1;exitDx=0;exitDy=0;" edge="1" parent="1" source="uvi3WjUz11MRuJopwkiY-8" target="uvi3WjUz11MRuJopwkiY-12">
          <mxGeometry width="50" height="50" relative="1" as="geometry">
            <mxPoint x="370" y="480" as="sourcePoint" />
            <mxPoint x="420" y="430" as="targetPoint" />
          </mxGeometry>
        </mxCell>
        <mxCell id="uvi3WjUz11MRuJopwkiY-20" value="" style="endArrow=none;html=1;rounded=0;entryX=0.5;entryY=1;entryDx=0;entryDy=0;" edge="1" parent="1" target="uvi3WjUz11MRuJopwkiY-1">
          <mxGeometry width="50" height="50" relative="1" as="geometry">
            <mxPoint x="385" y="210" as="sourcePoint" />
            <mxPoint x="420" y="370" as="targetPoint" />
          </mxGeometry>
        </mxCell>
        <mxCell id="uvi3WjUz11MRuJopwkiY-21" value="" style="endArrow=none;html=1;rounded=0;exitX=0.5;exitY=0;exitDx=0;exitDy=0;entryX=0.521;entryY=1.004;entryDx=0;entryDy=0;entryPerimeter=0;" edge="1" parent="1" source="uvi3WjUz11MRuJopwkiY-4" target="uvi3WjUz11MRuJopwkiY-2">
          <mxGeometry width="50" height="50" relative="1" as="geometry">
            <mxPoint x="370" y="420" as="sourcePoint" />
            <mxPoint x="390" y="290" as="targetPoint" />
          </mxGeometry>
        </mxCell>
        <mxCell id="uvi3WjUz11MRuJopwkiY-22" value="&lt;div&gt;Цикл 2&lt;/div&gt;j &amp;lt;= lenS2&amp;nbsp;" style="shape=loopLimit;whiteSpace=wrap;html=1;" vertex="1" parent="1">
          <mxGeometry x="322" y="840" width="140" height="60" as="geometry" />
        </mxCell>
        <mxCell id="uvi3WjUz11MRuJopwkiY-23" value="matrix[0][j] = j" style="rounded=0;whiteSpace=wrap;html=1;" vertex="1" parent="1">
          <mxGeometry x="322" y="925" width="140" height="60" as="geometry" />
        </mxCell>
        <mxCell id="uvi3WjUz11MRuJopwkiY-38" value="" style="edgeStyle=orthogonalEdgeStyle;rounded=0;orthogonalLoop=1;jettySize=auto;html=1;endArrow=none;endFill=0;" edge="1" parent="1" source="uvi3WjUz11MRuJopwkiY-24" target="uvi3WjUz11MRuJopwkiY-36">
          <mxGeometry relative="1" as="geometry" />
        </mxCell>
        <mxCell id="uvi3WjUz11MRuJopwkiY-24" value="" style="shape=loopLimit;whiteSpace=wrap;html=1;rotation=-180;" vertex="1" parent="1">
          <mxGeometry x="320" y="1094" width="144" height="48" as="geometry" />
        </mxCell>
        <mxCell id="uvi3WjUz11MRuJopwkiY-25" value="Цикл 2" style="text;html=1;align=center;verticalAlign=middle;whiteSpace=wrap;rounded=0;" vertex="1" parent="1">
          <mxGeometry x="358" y="1102" width="60" height="30" as="geometry" />
        </mxCell>
        <mxCell id="uvi3WjUz11MRuJopwkiY-26" value="j = j + 1" style="rounded=0;whiteSpace=wrap;html=1;" vertex="1" parent="1">
          <mxGeometry x="322" y="1010" width="140" height="60" as="geometry" />
        </mxCell>
        <mxCell id="uvi3WjUz11MRuJopwkiY-27" value="" style="endArrow=none;html=1;rounded=0;entryX=0.5;entryY=1;entryDx=0;entryDy=0;exitX=0.5;exitY=0;exitDx=0;exitDy=0;" edge="1" parent="1" source="uvi3WjUz11MRuJopwkiY-23" target="uvi3WjUz11MRuJopwkiY-22">
          <mxGeometry width="50" height="50" relative="1" as="geometry">
            <mxPoint x="372" y="920" as="sourcePoint" />
            <mxPoint x="422" y="870" as="targetPoint" />
          </mxGeometry>
        </mxCell>
        <mxCell id="uvi3WjUz11MRuJopwkiY-28" value="" style="endArrow=none;html=1;rounded=0;entryX=0.5;entryY=1;entryDx=0;entryDy=0;exitX=0.5;exitY=0;exitDx=0;exitDy=0;" edge="1" parent="1" source="uvi3WjUz11MRuJopwkiY-26" target="uvi3WjUz11MRuJopwkiY-23">
          <mxGeometry width="50" height="50" relative="1" as="geometry">
            <mxPoint x="372" y="920" as="sourcePoint" />
            <mxPoint x="422" y="870" as="targetPoint" />
          </mxGeometry>
        </mxCell>
        <mxCell id="uvi3WjUz11MRuJopwkiY-29" value="" style="endArrow=none;html=1;rounded=0;entryX=0.5;entryY=1;entryDx=0;entryDy=0;exitX=0.5;exitY=1;exitDx=0;exitDy=0;" edge="1" parent="1" source="uvi3WjUz11MRuJopwkiY-24" target="uvi3WjUz11MRuJopwkiY-26">
          <mxGeometry width="50" height="50" relative="1" as="geometry">
            <mxPoint x="372" y="920" as="sourcePoint" />
            <mxPoint x="422" y="870" as="targetPoint" />
          </mxGeometry>
        </mxCell>
        <mxCell id="uvi3WjUz11MRuJopwkiY-30" value="j = 0" style="rounded=0;whiteSpace=wrap;html=1;" vertex="1" parent="1">
          <mxGeometry x="318" y="740" width="144" height="60" as="geometry" />
        </mxCell>
        <mxCell id="uvi3WjUz11MRuJopwkiY-35" value="" style="endArrow=none;html=1;rounded=0;entryX=0.5;entryY=1;entryDx=0;entryDy=0;exitX=0.485;exitY=-0.008;exitDx=0;exitDy=0;exitPerimeter=0;" edge="1" parent="1" source="uvi3WjUz11MRuJopwkiY-22" target="uvi3WjUz11MRuJopwkiY-30">
          <mxGeometry width="50" height="50" relative="1" as="geometry">
            <mxPoint x="370" y="850" as="sourcePoint" />
            <mxPoint x="420" y="800" as="targetPoint" />
          </mxGeometry>
        </mxCell>
        <mxCell id="uvi3WjUz11MRuJopwkiY-36" value="А" style="ellipse;whiteSpace=wrap;html=1;aspect=fixed;" vertex="1" parent="1">
          <mxGeometry x="367" y="1169" width="50" height="50" as="geometry" />
        </mxCell>
        <mxCell id="uvi3WjUz11MRuJopwkiY-46" value="" style="endArrow=none;html=1;rounded=0;entryX=0.5;entryY=1;entryDx=0;entryDy=0;exitX=0.5;exitY=0;exitDx=0;exitDy=0;" edge="1" parent="1" source="uvi3WjUz11MRuJopwkiY-6" target="uvi3WjUz11MRuJopwkiY-5">
          <mxGeometry width="50" height="50" relative="1" as="geometry">
            <mxPoint x="340" y="530" as="sourcePoint" />
            <mxPoint x="390" y="480" as="targetPoint" />
          </mxGeometry>
        </mxCell>
        <mxCell id="uvi3WjUz11MRuJopwkiY-48" value="" style="endArrow=none;html=1;rounded=0;entryX=0.5;entryY=1;entryDx=0;entryDy=0;" edge="1" parent="1" target="uvi3WjUz11MRuJopwkiY-4">
          <mxGeometry width="50" height="50" relative="1" as="geometry">
            <mxPoint x="389" y="400" as="sourcePoint" />
            <mxPoint x="390" y="400" as="targetPoint" />
          </mxGeometry>
        </mxCell>
        <mxCell id="YMrb2IwZ1XCpgWq3DR12-1" value="" style="strokeWidth=2;html=1;shape=mxgraph.flowchart.annotation_1;align=left;pointerEvents=1;" vertex="1" parent="1">
          <mxGeometry x="510" y="91" width="50" height="100" as="geometry" />
        </mxCell>
        <mxCell id="YMrb2IwZ1XCpgWq3DR12-2" value="min - возвращает наименьшее значение" style="text;html=1;align=left;verticalAlign=middle;whiteSpace=wrap;rounded=0;" vertex="1" parent="1">
          <mxGeometry x="520" y="95" width="160" height="30" as="geometry" />
        </mxCell>
        <mxCell id="YMrb2IwZ1XCpgWq3DR12-3" value="Вход: строки S1, S2, Длины строк lenS1, lenS2" style="text;html=1;align=center;verticalAlign=middle;whiteSpace=wrap;rounded=0;" vertex="1" parent="1">
          <mxGeometry x="510" y="125" width="180" height="30" as="geometry" />
        </mxCell>
        <mxCell id="YMrb2IwZ1XCpgWq3DR12-4" value="Выход: расстояние Левенштейна между S1 и S2" style="text;html=1;align=left;verticalAlign=middle;whiteSpace=wrap;rounded=0;" vertex="1" parent="1">
          <mxGeometry x="520" y="155" width="170" height="30" as="geometry" />
        </mxCell>
        <mxCell id="YMrb2IwZ1XCpgWq3DR12-6" value="" style="endArrow=none;dashed=1;html=1;rounded=0;entryX=0;entryY=0.5;entryDx=0;entryDy=0;exitX=1;exitY=0.5;exitDx=0;exitDy=0;" edge="1" parent="1" source="uvi3WjUz11MRuJopwkiY-1" target="YMrb2IwZ1XCpgWq3DR12-3">
          <mxGeometry width="50" height="50" relative="1" as="geometry">
            <mxPoint x="330" y="200" as="sourcePoint" />
            <mxPoint x="380" y="150" as="targetPoint" />
          </mxGeometry>
        </mxCell>
      </root>
    </mxGraphModel>
  </diagram>
  <diagram id="mG2ID30B1zAwLfYpS8u5" name="Страница — 3">
    <mxGraphModel dx="763" dy="-658" grid="1" gridSize="10" guides="1" tooltips="1" connect="1" arrows="1" fold="1" page="1" pageScale="1" pageWidth="827" pageHeight="1169" math="0" shadow="0">
      <root>
        <mxCell id="0" />
        <mxCell id="1" parent="0" />
        <mxCell id="JHGCLKF4wip5fZBa7TiO-1" value="А" style="ellipse;whiteSpace=wrap;html=1;aspect=fixed;" vertex="1" parent="1">
          <mxGeometry x="379.5" y="1220" width="50" height="50" as="geometry" />
        </mxCell>
        <mxCell id="JHGCLKF4wip5fZBa7TiO-2" value="i = 1" style="rounded=0;whiteSpace=wrap;html=1;" vertex="1" parent="1">
          <mxGeometry x="345" y="1303" width="120" height="50" as="geometry" />
        </mxCell>
        <mxCell id="JHGCLKF4wip5fZBa7TiO-3" value="j = 1" style="rounded=0;whiteSpace=wrap;html=1;" vertex="1" parent="1">
          <mxGeometry x="344.5" y="1370" width="120" height="50" as="geometry" />
        </mxCell>
        <mxCell id="JHGCLKF4wip5fZBa7TiO-8" style="edgeStyle=orthogonalEdgeStyle;rounded=0;orthogonalLoop=1;jettySize=auto;html=1;exitX=1;exitY=0.5;exitDx=0;exitDy=0;entryX=0.5;entryY=0;entryDx=0;entryDy=0;" edge="1" parent="1" source="JHGCLKF4wip5fZBa7TiO-5" target="JHGCLKF4wip5fZBa7TiO-6">
          <mxGeometry relative="1" as="geometry" />
        </mxCell>
        <mxCell id="JHGCLKF4wip5fZBa7TiO-9" style="edgeStyle=orthogonalEdgeStyle;rounded=0;orthogonalLoop=1;jettySize=auto;html=1;exitX=0;exitY=0.5;exitDx=0;exitDy=0;entryX=0.5;entryY=0;entryDx=0;entryDy=0;" edge="1" parent="1" source="JHGCLKF4wip5fZBa7TiO-5" target="JHGCLKF4wip5fZBa7TiO-7">
          <mxGeometry relative="1" as="geometry" />
        </mxCell>
        <mxCell id="JHGCLKF4wip5fZBa7TiO-5" value="S1[i - 1] = S2[j - 1]" style="rhombus;whiteSpace=wrap;html=1;" vertex="1" parent="1">
          <mxGeometry x="341.5" y="1600" width="125" height="70" as="geometry" />
        </mxCell>
        <mxCell id="JHGCLKF4wip5fZBa7TiO-6" value="cost = 0" style="rounded=0;whiteSpace=wrap;html=1;" vertex="1" parent="1">
          <mxGeometry x="479.5" y="1680" width="120" height="60" as="geometry" />
        </mxCell>
        <mxCell id="JHGCLKF4wip5fZBa7TiO-7" value="cost = 1" style="rounded=0;whiteSpace=wrap;html=1;" vertex="1" parent="1">
          <mxGeometry x="209.5" y="1680" width="120" height="60" as="geometry" />
        </mxCell>
        <mxCell id="JHGCLKF4wip5fZBa7TiO-10" value="Да" style="text;html=1;align=center;verticalAlign=middle;whiteSpace=wrap;rounded=0;" vertex="1" parent="1">
          <mxGeometry x="489.5" y="1610" width="60" height="30" as="geometry" />
        </mxCell>
        <mxCell id="JHGCLKF4wip5fZBa7TiO-14" value="" style="endArrow=none;html=1;rounded=0;entryX=0.5;entryY=1;entryDx=0;entryDy=0;" edge="1" parent="1" target="JHGCLKF4wip5fZBa7TiO-2">
          <mxGeometry width="50" height="50" relative="1" as="geometry">
            <mxPoint x="405" y="1370" as="sourcePoint" />
            <mxPoint x="440" y="1430" as="targetPoint" />
          </mxGeometry>
        </mxCell>
        <mxCell id="JHGCLKF4wip5fZBa7TiO-16" value="" style="endArrow=none;html=1;rounded=0;entryX=0.5;entryY=1;entryDx=0;entryDy=0;exitX=0.5;exitY=0;exitDx=0;exitDy=0;" edge="1" parent="1" source="JHGCLKF4wip5fZBa7TiO-2" target="JHGCLKF4wip5fZBa7TiO-1">
          <mxGeometry width="50" height="50" relative="1" as="geometry">
            <mxPoint x="405" y="1300" as="sourcePoint" />
            <mxPoint x="440" y="1430" as="targetPoint" />
          </mxGeometry>
        </mxCell>
        <mxCell id="JHGCLKF4wip5fZBa7TiO-17" value="matrix[i][j] = min(&lt;div&gt;min(matrix[i-1][j] + 1,&lt;/div&gt;&lt;div&gt;matrix[i][j-1] + 1),&lt;/div&gt;&lt;div&gt;matrix[i - 1][j - 1 + cost)&lt;/div&gt;" style="rounded=0;whiteSpace=wrap;html=1;" vertex="1" parent="1">
          <mxGeometry x="340.5" y="1830" width="129.5" height="70" as="geometry" />
        </mxCell>
        <mxCell id="JHGCLKF4wip5fZBa7TiO-22" value="" style="endArrow=none;html=1;rounded=0;" edge="1" parent="1">
          <mxGeometry width="50" height="50" relative="1" as="geometry">
            <mxPoint x="269.26" y="1790" as="sourcePoint" />
            <mxPoint x="269.26" y="1740" as="targetPoint" />
          </mxGeometry>
        </mxCell>
        <mxCell id="JHGCLKF4wip5fZBa7TiO-23" value="" style="endArrow=none;html=1;rounded=0;" edge="1" parent="1">
          <mxGeometry width="50" height="50" relative="1" as="geometry">
            <mxPoint x="539.5" y="1790" as="sourcePoint" />
            <mxPoint x="539.5" y="1740" as="targetPoint" />
          </mxGeometry>
        </mxCell>
        <mxCell id="JHGCLKF4wip5fZBa7TiO-24" value="" style="endArrow=none;html=1;rounded=0;" edge="1" parent="1">
          <mxGeometry width="50" height="50" relative="1" as="geometry">
            <mxPoint x="269.5" y="1790" as="sourcePoint" />
            <mxPoint x="539.5" y="1790" as="targetPoint" />
          </mxGeometry>
        </mxCell>
        <mxCell id="JHGCLKF4wip5fZBa7TiO-25" value="" style="endArrow=none;html=1;rounded=0;" edge="1" parent="1">
          <mxGeometry width="50" height="50" relative="1" as="geometry">
            <mxPoint x="399.5" y="1830" as="sourcePoint" />
            <mxPoint x="399.5" y="1790" as="targetPoint" />
          </mxGeometry>
        </mxCell>
        <mxCell id="JHGCLKF4wip5fZBa7TiO-26" value="Цикл 3&lt;div&gt;i &amp;lt; lenS1 + 1&lt;/div&gt;" style="shape=loopLimit;whiteSpace=wrap;html=1;" vertex="1" parent="1">
          <mxGeometry x="344.5" y="1440" width="115.5" height="40" as="geometry" />
        </mxCell>
        <mxCell id="JHGCLKF4wip5fZBa7TiO-27" value="Цикл 4&lt;div&gt;j &amp;lt; lenS2 + 1&lt;/div&gt;" style="shape=loopLimit;whiteSpace=wrap;html=1;" vertex="1" parent="1">
          <mxGeometry x="347" y="1510" width="115" height="40" as="geometry" />
        </mxCell>
        <mxCell id="pJDnNR1xVLx9RSotzi8Q-1" value="" style="shape=loopLimit;whiteSpace=wrap;html=1;rotation=-180;" vertex="1" parent="1">
          <mxGeometry x="348.5" y="2077" width="115.5" height="40" as="geometry" />
        </mxCell>
        <mxCell id="pJDnNR1xVLx9RSotzi8Q-2" value="" style="shape=loopLimit;whiteSpace=wrap;html=1;rotation=-180;" vertex="1" parent="1">
          <mxGeometry x="348.5" y="2137" width="115.5" height="40" as="geometry" />
        </mxCell>
        <mxCell id="pJDnNR1xVLx9RSotzi8Q-5" value="" style="endArrow=none;html=1;rounded=0;entryX=0.5;entryY=0;entryDx=0;entryDy=0;exitX=0.5;exitY=1;exitDx=0;exitDy=0;" edge="1" parent="1" source="pJDnNR1xVLx9RSotzi8Q-2" target="pJDnNR1xVLx9RSotzi8Q-1">
          <mxGeometry width="50" height="50" relative="1" as="geometry">
            <mxPoint x="350" y="2160" as="sourcePoint" />
            <mxPoint x="400" y="2110" as="targetPoint" />
          </mxGeometry>
        </mxCell>
        <mxCell id="pJDnNR1xVLx9RSotzi8Q-6" value="i = i + 1" style="rounded=0;whiteSpace=wrap;html=1;" vertex="1" parent="1">
          <mxGeometry x="347" y="1912" width="120" height="60" as="geometry" />
        </mxCell>
        <mxCell id="pJDnNR1xVLx9RSotzi8Q-7" value="j = j + 1" style="rounded=0;whiteSpace=wrap;html=1;" vertex="1" parent="1">
          <mxGeometry x="346.5" y="1985" width="120" height="60" as="geometry" />
        </mxCell>
        <mxCell id="pJDnNR1xVLx9RSotzi8Q-9" value="" style="endArrow=none;html=1;rounded=0;exitX=0.484;exitY=-0.002;exitDx=0;exitDy=0;exitPerimeter=0;" edge="1" parent="1" source="pJDnNR1xVLx9RSotzi8Q-6">
          <mxGeometry width="50" height="50" relative="1" as="geometry">
            <mxPoint x="350" y="1960" as="sourcePoint" />
            <mxPoint x="405" y="1900" as="targetPoint" />
          </mxGeometry>
        </mxCell>
        <mxCell id="pJDnNR1xVLx9RSotzi8Q-10" value="" style="endArrow=none;html=1;rounded=0;exitX=0.5;exitY=0;exitDx=0;exitDy=0;entryX=0.494;entryY=0.999;entryDx=0;entryDy=0;entryPerimeter=0;" edge="1" parent="1" source="pJDnNR1xVLx9RSotzi8Q-7" target="pJDnNR1xVLx9RSotzi8Q-6">
          <mxGeometry width="50" height="50" relative="1" as="geometry">
            <mxPoint x="380" y="2000" as="sourcePoint" />
            <mxPoint x="410" y="1970" as="targetPoint" />
          </mxGeometry>
        </mxCell>
        <mxCell id="pJDnNR1xVLx9RSotzi8Q-11" value="" style="endArrow=none;html=1;rounded=0;entryX=0.5;entryY=1;entryDx=0;entryDy=0;exitX=0.498;exitY=1.017;exitDx=0;exitDy=0;exitPerimeter=0;" edge="1" parent="1" source="pJDnNR1xVLx9RSotzi8Q-1" target="pJDnNR1xVLx9RSotzi8Q-7">
          <mxGeometry width="50" height="50" relative="1" as="geometry">
            <mxPoint x="380" y="2080" as="sourcePoint" />
            <mxPoint x="430" y="2030" as="targetPoint" />
          </mxGeometry>
        </mxCell>
        <mxCell id="pJDnNR1xVLx9RSotzi8Q-12" value="Цикл 4" style="text;html=1;align=center;verticalAlign=middle;whiteSpace=wrap;rounded=0;" vertex="1" parent="1">
          <mxGeometry x="376.25" y="2082" width="60" height="30" as="geometry" />
        </mxCell>
        <mxCell id="pJDnNR1xVLx9RSotzi8Q-13" value="Цикл 3" style="text;html=1;align=center;verticalAlign=middle;whiteSpace=wrap;rounded=0;" vertex="1" parent="1">
          <mxGeometry x="376.25" y="2142" width="60" height="30" as="geometry" />
        </mxCell>
        <mxCell id="pJDnNR1xVLx9RSotzi8Q-14" value="Вернуть matrix[lenS1][lenS2]" style="rounded=0;whiteSpace=wrap;html=1;" vertex="1" parent="1">
          <mxGeometry x="346.25" y="2210" width="120" height="60" as="geometry" />
        </mxCell>
        <mxCell id="pJDnNR1xVLx9RSotzi8Q-15" value="" style="endArrow=none;html=1;rounded=0;entryX=0.5;entryY=1;entryDx=0;entryDy=0;exitX=0.483;exitY=-0.01;exitDx=0;exitDy=0;exitPerimeter=0;" edge="1" parent="1" source="JHGCLKF4wip5fZBa7TiO-27" target="JHGCLKF4wip5fZBa7TiO-26">
          <mxGeometry width="50" height="50" relative="1" as="geometry">
            <mxPoint x="370" y="1620" as="sourcePoint" />
            <mxPoint x="420" y="1570" as="targetPoint" />
          </mxGeometry>
        </mxCell>
        <mxCell id="pJDnNR1xVLx9RSotzi8Q-16" value="" style="endArrow=none;html=1;rounded=0;entryX=0.5;entryY=1;entryDx=0;entryDy=0;exitX=0.519;exitY=-0.002;exitDx=0;exitDy=0;exitPerimeter=0;" edge="1" parent="1" source="JHGCLKF4wip5fZBa7TiO-26" target="JHGCLKF4wip5fZBa7TiO-3">
          <mxGeometry width="50" height="50" relative="1" as="geometry">
            <mxPoint x="370" y="1540" as="sourcePoint" />
            <mxPoint x="420" y="1490" as="targetPoint" />
          </mxGeometry>
        </mxCell>
        <mxCell id="pJDnNR1xVLx9RSotzi8Q-17" value="" style="endArrow=none;html=1;rounded=0;exitX=0.5;exitY=0;exitDx=0;exitDy=0;entryX=0.5;entryY=1;entryDx=0;entryDy=0;" edge="1" parent="1" source="JHGCLKF4wip5fZBa7TiO-5" target="JHGCLKF4wip5fZBa7TiO-27">
          <mxGeometry width="50" height="50" relative="1" as="geometry">
            <mxPoint x="370" y="1600" as="sourcePoint" />
            <mxPoint x="420" y="1550" as="targetPoint" />
          </mxGeometry>
        </mxCell>
        <mxCell id="iQyXdnRbnj1l35mFH-j--1" value="" style="endArrow=none;html=1;rounded=0;entryX=0.517;entryY=0;entryDx=0;entryDy=0;entryPerimeter=0;exitX=0.484;exitY=0.006;exitDx=0;exitDy=0;exitPerimeter=0;" edge="1" parent="1" source="pJDnNR1xVLx9RSotzi8Q-14" target="pJDnNR1xVLx9RSotzi8Q-2">
          <mxGeometry width="50" height="50" relative="1" as="geometry">
            <mxPoint x="370" y="2200" as="sourcePoint" />
            <mxPoint x="420" y="2150" as="targetPoint" />
          </mxGeometry>
        </mxCell>
        <mxCell id="DLvWJzE24x-nePC8q6zY-1" value="Конец" style="rounded=1;whiteSpace=wrap;html=1;arcSize=50;" vertex="1" parent="1">
          <mxGeometry x="340.5" y="2300" width="132" height="60" as="geometry" />
        </mxCell>
        <mxCell id="DLvWJzE24x-nePC8q6zY-5" value="" style="endArrow=none;html=1;rounded=0;entryX=0.5;entryY=1;entryDx=0;entryDy=0;exitX=0.5;exitY=0;exitDx=0;exitDy=0;" edge="1" parent="1" source="DLvWJzE24x-nePC8q6zY-1" target="pJDnNR1xVLx9RSotzi8Q-14">
          <mxGeometry width="50" height="50" relative="1" as="geometry">
            <mxPoint x="340" y="2500" as="sourcePoint" />
            <mxPoint x="390" y="2450" as="targetPoint" />
          </mxGeometry>
        </mxCell>
      </root>
    </mxGraphModel>
  </diagram>
  <diagram id="e5TEl3NLAjmAWz5CjCwx" name="Страница — 4">
    <mxGraphModel dx="830" dy="556" grid="1" gridSize="10" guides="1" tooltips="1" connect="1" arrows="1" fold="1" page="1" pageScale="1" pageWidth="827" pageHeight="1169" math="0" shadow="0">
      <root>
        <mxCell id="0" />
        <mxCell id="1" parent="0" />
        <mxCell id="QbnsCeLwDq6VR0dYlzlP-1" value="Начало" style="rounded=1;whiteSpace=wrap;html=1;arcSize=50;" vertex="1" parent="1">
          <mxGeometry x="310" y="30" width="150" height="60" as="geometry" />
        </mxCell>
        <mxCell id="QbnsCeLwDq6VR0dYlzlP-2" value="Выделить память под матрицу matrix размером lenS1 на lenS2" style="rounded=0;whiteSpace=wrap;html=1;" vertex="1" parent="1">
          <mxGeometry x="307.5" y="120" width="155" height="60" as="geometry" />
        </mxCell>
        <mxCell id="y5wUTP9tu1UvPYqgVaoU-1" value="&lt;div&gt;Цикл 1&lt;/div&gt;i &amp;lt;= lenS1&amp;nbsp;" style="shape=loopLimit;whiteSpace=wrap;html=1;" vertex="1" parent="1">
          <mxGeometry x="315" y="220" width="140" height="60" as="geometry" />
        </mxCell>
        <mxCell id="y5wUTP9tu1UvPYqgVaoU-2" value="" style="edgeStyle=orthogonalEdgeStyle;rounded=0;orthogonalLoop=1;jettySize=auto;html=1;endArrow=none;endFill=0;" edge="1" parent="1" source="y5wUTP9tu1UvPYqgVaoU-3" target="y5wUTP9tu1UvPYqgVaoU-7">
          <mxGeometry relative="1" as="geometry" />
        </mxCell>
        <mxCell id="y5wUTP9tu1UvPYqgVaoU-3" value="matrix[i][0] = i" style="rounded=0;whiteSpace=wrap;html=1;" vertex="1" parent="1">
          <mxGeometry x="315" y="305" width="140" height="60" as="geometry" />
        </mxCell>
        <mxCell id="y5wUTP9tu1UvPYqgVaoU-4" value="" style="edgeStyle=orthogonalEdgeStyle;rounded=0;orthogonalLoop=1;jettySize=auto;html=1;endArrow=none;endFill=0;" edge="1" parent="1" source="y5wUTP9tu1UvPYqgVaoU-5" target="y5wUTP9tu1UvPYqgVaoU-16">
          <mxGeometry relative="1" as="geometry" />
        </mxCell>
        <mxCell id="y5wUTP9tu1UvPYqgVaoU-5" value="" style="shape=loopLimit;whiteSpace=wrap;html=1;rotation=-180;" vertex="1" parent="1">
          <mxGeometry x="313" y="474" width="144" height="48" as="geometry" />
        </mxCell>
        <mxCell id="y5wUTP9tu1UvPYqgVaoU-6" value="Цикл 1" style="text;html=1;align=center;verticalAlign=middle;whiteSpace=wrap;rounded=0;" vertex="1" parent="1">
          <mxGeometry x="351" y="482" width="60" height="30" as="geometry" />
        </mxCell>
        <mxCell id="y5wUTP9tu1UvPYqgVaoU-7" value="i = i + 1" style="rounded=0;whiteSpace=wrap;html=1;" vertex="1" parent="1">
          <mxGeometry x="315" y="390" width="140" height="60" as="geometry" />
        </mxCell>
        <mxCell id="y5wUTP9tu1UvPYqgVaoU-8" value="" style="endArrow=none;html=1;rounded=0;entryX=0.5;entryY=1;entryDx=0;entryDy=0;exitX=0.5;exitY=1;exitDx=0;exitDy=0;" edge="1" parent="1" source="y5wUTP9tu1UvPYqgVaoU-5" target="y5wUTP9tu1UvPYqgVaoU-7">
          <mxGeometry width="50" height="50" relative="1" as="geometry">
            <mxPoint x="365" y="300" as="sourcePoint" />
            <mxPoint x="415" y="250" as="targetPoint" />
          </mxGeometry>
        </mxCell>
        <mxCell id="y5wUTP9tu1UvPYqgVaoU-9" value="&lt;div&gt;Цикл 2&lt;/div&gt;j &amp;lt;= lenS2&amp;nbsp;" style="shape=loopLimit;whiteSpace=wrap;html=1;" vertex="1" parent="1">
          <mxGeometry x="317" y="660" width="140" height="60" as="geometry" />
        </mxCell>
        <mxCell id="y5wUTP9tu1UvPYqgVaoU-10" value="matrix[0][j] = j" style="rounded=0;whiteSpace=wrap;html=1;" vertex="1" parent="1">
          <mxGeometry x="317" y="745" width="140" height="60" as="geometry" />
        </mxCell>
        <mxCell id="y5wUTP9tu1UvPYqgVaoU-12" value="j = j + 1" style="rounded=0;whiteSpace=wrap;html=1;" vertex="1" parent="1">
          <mxGeometry x="317" y="830" width="140" height="60" as="geometry" />
        </mxCell>
        <mxCell id="y5wUTP9tu1UvPYqgVaoU-13" value="" style="endArrow=none;html=1;rounded=0;entryX=0.5;entryY=1;entryDx=0;entryDy=0;exitX=0.5;exitY=0;exitDx=0;exitDy=0;" edge="1" parent="1" source="y5wUTP9tu1UvPYqgVaoU-10" target="y5wUTP9tu1UvPYqgVaoU-9">
          <mxGeometry width="50" height="50" relative="1" as="geometry">
            <mxPoint x="367" y="740" as="sourcePoint" />
            <mxPoint x="417" y="690" as="targetPoint" />
          </mxGeometry>
        </mxCell>
        <mxCell id="y5wUTP9tu1UvPYqgVaoU-14" value="" style="endArrow=none;html=1;rounded=0;entryX=0.5;entryY=1;entryDx=0;entryDy=0;exitX=0.5;exitY=0;exitDx=0;exitDy=0;" edge="1" parent="1" source="y5wUTP9tu1UvPYqgVaoU-12" target="y5wUTP9tu1UvPYqgVaoU-10">
          <mxGeometry width="50" height="50" relative="1" as="geometry">
            <mxPoint x="367" y="740" as="sourcePoint" />
            <mxPoint x="417" y="690" as="targetPoint" />
          </mxGeometry>
        </mxCell>
        <mxCell id="y5wUTP9tu1UvPYqgVaoU-15" value="" style="endArrow=none;html=1;rounded=0;entryX=0.5;entryY=1;entryDx=0;entryDy=0;exitX=0.5;exitY=1;exitDx=0;exitDy=0;" edge="1" parent="1" target="y5wUTP9tu1UvPYqgVaoU-12">
          <mxGeometry width="50" height="50" relative="1" as="geometry">
            <mxPoint x="387" y="914" as="sourcePoint" />
            <mxPoint x="417" y="690" as="targetPoint" />
          </mxGeometry>
        </mxCell>
        <mxCell id="y5wUTP9tu1UvPYqgVaoU-16" value="j = 0" style="rounded=0;whiteSpace=wrap;html=1;" vertex="1" parent="1">
          <mxGeometry x="313" y="560" width="144" height="60" as="geometry" />
        </mxCell>
        <mxCell id="y5wUTP9tu1UvPYqgVaoU-17" value="" style="endArrow=none;html=1;rounded=0;entryX=0.5;entryY=1;entryDx=0;entryDy=0;exitX=0.485;exitY=-0.008;exitDx=0;exitDy=0;exitPerimeter=0;" edge="1" parent="1" source="y5wUTP9tu1UvPYqgVaoU-9" target="y5wUTP9tu1UvPYqgVaoU-16">
          <mxGeometry width="50" height="50" relative="1" as="geometry">
            <mxPoint x="365" y="670" as="sourcePoint" />
            <mxPoint x="415" y="620" as="targetPoint" />
          </mxGeometry>
        </mxCell>
        <mxCell id="y5wUTP9tu1UvPYqgVaoU-18" value="" style="endArrow=none;html=1;rounded=0;entryX=0.5;entryY=1;entryDx=0;entryDy=0;exitX=0.5;exitY=0;exitDx=0;exitDy=0;" edge="1" parent="1" source="y5wUTP9tu1UvPYqgVaoU-3" target="y5wUTP9tu1UvPYqgVaoU-1">
          <mxGeometry width="50" height="50" relative="1" as="geometry">
            <mxPoint x="335" y="350" as="sourcePoint" />
            <mxPoint x="385" y="300" as="targetPoint" />
          </mxGeometry>
        </mxCell>
        <mxCell id="vBXDN-UWhXqQVr7eldIi-1" value="" style="shape=loopLimit;whiteSpace=wrap;html=1;rotation=-180;" vertex="1" parent="1">
          <mxGeometry x="318.5" y="914" width="144" height="48" as="geometry" />
        </mxCell>
        <mxCell id="y5wUTP9tu1UvPYqgVaoU-11" value="Цикл 2" style="text;html=1;align=center;verticalAlign=middle;whiteSpace=wrap;rounded=0;" vertex="1" parent="1">
          <mxGeometry x="360.5" y="923" width="60" height="30" as="geometry" />
        </mxCell>
        <mxCell id="vBXDN-UWhXqQVr7eldIi-2" value="" style="endArrow=none;html=1;rounded=0;exitX=0.5;exitY=0;exitDx=0;exitDy=0;entryX=0.5;entryY=1;entryDx=0;entryDy=0;" edge="1" parent="1" source="y5wUTP9tu1UvPYqgVaoU-1" target="QbnsCeLwDq6VR0dYlzlP-2">
          <mxGeometry width="50" height="50" relative="1" as="geometry">
            <mxPoint x="390" y="200" as="sourcePoint" />
            <mxPoint x="440" y="150" as="targetPoint" />
          </mxGeometry>
        </mxCell>
        <mxCell id="vBXDN-UWhXqQVr7eldIi-3" value="" style="endArrow=none;html=1;rounded=0;entryX=0.5;entryY=1;entryDx=0;entryDy=0;exitX=0.5;exitY=0;exitDx=0;exitDy=0;" edge="1" parent="1" source="QbnsCeLwDq6VR0dYlzlP-2" target="QbnsCeLwDq6VR0dYlzlP-1">
          <mxGeometry width="50" height="50" relative="1" as="geometry">
            <mxPoint x="390" y="150" as="sourcePoint" />
            <mxPoint x="440" y="100" as="targetPoint" />
          </mxGeometry>
        </mxCell>
        <mxCell id="vBXDN-UWhXqQVr7eldIi-5" value="A" style="ellipse;whiteSpace=wrap;html=1;aspect=fixed;" vertex="1" parent="1">
          <mxGeometry x="360.5" y="990" width="60" height="60" as="geometry" />
        </mxCell>
        <mxCell id="vBXDN-UWhXqQVr7eldIi-6" value="" style="endArrow=none;html=1;rounded=0;exitX=0.5;exitY=0;exitDx=0;exitDy=0;entryX=0.5;entryY=0;entryDx=0;entryDy=0;" edge="1" parent="1" source="vBXDN-UWhXqQVr7eldIi-5" target="vBXDN-UWhXqQVr7eldIi-1">
          <mxGeometry width="50" height="50" relative="1" as="geometry">
            <mxPoint x="410" y="1040" as="sourcePoint" />
            <mxPoint x="460" y="990" as="targetPoint" />
          </mxGeometry>
        </mxCell>
      </root>
    </mxGraphModel>
  </diagram>
  <diagram id="lDfPD75JSxysKyaY7g5T" name="Страница — 5">
    <mxGraphModel dx="1004" dy="-496" grid="1" gridSize="10" guides="1" tooltips="1" connect="1" arrows="1" fold="1" page="1" pageScale="1" pageWidth="827" pageHeight="1169" math="0" shadow="0">
      <root>
        <mxCell id="0" />
        <mxCell id="1" parent="0" />
        <mxCell id="YH4AmQAngbtuhGDWuZf4-1" value="А" style="ellipse;whiteSpace=wrap;html=1;aspect=fixed;" vertex="1" parent="1">
          <mxGeometry x="379.5" y="1220" width="50" height="50" as="geometry" />
        </mxCell>
        <mxCell id="YH4AmQAngbtuhGDWuZf4-2" value="i = 1" style="rounded=0;whiteSpace=wrap;html=1;" vertex="1" parent="1">
          <mxGeometry x="345" y="1303" width="120" height="50" as="geometry" />
        </mxCell>
        <mxCell id="YH4AmQAngbtuhGDWuZf4-3" value="j = 1" style="rounded=0;whiteSpace=wrap;html=1;" vertex="1" parent="1">
          <mxGeometry x="344.5" y="1370" width="120" height="50" as="geometry" />
        </mxCell>
        <mxCell id="YH4AmQAngbtuhGDWuZf4-4" style="edgeStyle=orthogonalEdgeStyle;rounded=0;orthogonalLoop=1;jettySize=auto;html=1;exitX=1;exitY=0.5;exitDx=0;exitDy=0;entryX=0.5;entryY=0;entryDx=0;entryDy=0;" edge="1" parent="1" source="YH4AmQAngbtuhGDWuZf4-6" target="YH4AmQAngbtuhGDWuZf4-7">
          <mxGeometry relative="1" as="geometry" />
        </mxCell>
        <mxCell id="YH4AmQAngbtuhGDWuZf4-5" style="edgeStyle=orthogonalEdgeStyle;rounded=0;orthogonalLoop=1;jettySize=auto;html=1;exitX=0;exitY=0.5;exitDx=0;exitDy=0;entryX=0.5;entryY=0;entryDx=0;entryDy=0;" edge="1" parent="1" source="YH4AmQAngbtuhGDWuZf4-6" target="YH4AmQAngbtuhGDWuZf4-8">
          <mxGeometry relative="1" as="geometry" />
        </mxCell>
        <mxCell id="YH4AmQAngbtuhGDWuZf4-6" value="S1[i - 1] = S2[j - 1]" style="rhombus;whiteSpace=wrap;html=1;" vertex="1" parent="1">
          <mxGeometry x="341.5" y="1600" width="125" height="70" as="geometry" />
        </mxCell>
        <mxCell id="YH4AmQAngbtuhGDWuZf4-7" value="cost = 0" style="rounded=0;whiteSpace=wrap;html=1;" vertex="1" parent="1">
          <mxGeometry x="479.5" y="1680" width="120" height="60" as="geometry" />
        </mxCell>
        <mxCell id="YH4AmQAngbtuhGDWuZf4-8" value="cost = 1" style="rounded=0;whiteSpace=wrap;html=1;" vertex="1" parent="1">
          <mxGeometry x="209.5" y="1680" width="120" height="60" as="geometry" />
        </mxCell>
        <mxCell id="YH4AmQAngbtuhGDWuZf4-9" value="Да" style="text;html=1;align=center;verticalAlign=middle;whiteSpace=wrap;rounded=0;" vertex="1" parent="1">
          <mxGeometry x="489.5" y="1610" width="60" height="30" as="geometry" />
        </mxCell>
        <mxCell id="YH4AmQAngbtuhGDWuZf4-10" value="" style="endArrow=none;html=1;rounded=0;entryX=0.5;entryY=1;entryDx=0;entryDy=0;" edge="1" parent="1" target="YH4AmQAngbtuhGDWuZf4-2">
          <mxGeometry width="50" height="50" relative="1" as="geometry">
            <mxPoint x="405" y="1370" as="sourcePoint" />
            <mxPoint x="440" y="1430" as="targetPoint" />
          </mxGeometry>
        </mxCell>
        <mxCell id="YH4AmQAngbtuhGDWuZf4-11" value="" style="endArrow=none;html=1;rounded=0;entryX=0.5;entryY=1;entryDx=0;entryDy=0;exitX=0.5;exitY=0;exitDx=0;exitDy=0;" edge="1" parent="1" source="YH4AmQAngbtuhGDWuZf4-2" target="YH4AmQAngbtuhGDWuZf4-1">
          <mxGeometry width="50" height="50" relative="1" as="geometry">
            <mxPoint x="405" y="1300" as="sourcePoint" />
            <mxPoint x="440" y="1430" as="targetPoint" />
          </mxGeometry>
        </mxCell>
        <mxCell id="YH4AmQAngbtuhGDWuZf4-12" value="matrix[i][j] = min(&lt;div&gt;min(matrix[i-1][j] + 1,&lt;/div&gt;&lt;div&gt;matrix[i][j-1] + 1),&lt;/div&gt;&lt;div&gt;matrix[i - 1][j - 1 + cost)&lt;/div&gt;" style="rounded=0;whiteSpace=wrap;html=1;" vertex="1" parent="1">
          <mxGeometry x="340.5" y="1830" width="129.5" height="70" as="geometry" />
        </mxCell>
        <mxCell id="YH4AmQAngbtuhGDWuZf4-13" value="" style="endArrow=none;html=1;rounded=0;" edge="1" parent="1">
          <mxGeometry width="50" height="50" relative="1" as="geometry">
            <mxPoint x="269.26" y="1790" as="sourcePoint" />
            <mxPoint x="269.26" y="1740" as="targetPoint" />
          </mxGeometry>
        </mxCell>
        <mxCell id="YH4AmQAngbtuhGDWuZf4-14" value="" style="endArrow=none;html=1;rounded=0;" edge="1" parent="1">
          <mxGeometry width="50" height="50" relative="1" as="geometry">
            <mxPoint x="539.5" y="1790" as="sourcePoint" />
            <mxPoint x="539.5" y="1740" as="targetPoint" />
          </mxGeometry>
        </mxCell>
        <mxCell id="YH4AmQAngbtuhGDWuZf4-15" value="" style="endArrow=none;html=1;rounded=0;" edge="1" parent="1">
          <mxGeometry width="50" height="50" relative="1" as="geometry">
            <mxPoint x="269.5" y="1790" as="sourcePoint" />
            <mxPoint x="539.5" y="1790" as="targetPoint" />
          </mxGeometry>
        </mxCell>
        <mxCell id="YH4AmQAngbtuhGDWuZf4-16" value="" style="endArrow=none;html=1;rounded=0;" edge="1" parent="1">
          <mxGeometry width="50" height="50" relative="1" as="geometry">
            <mxPoint x="399.5" y="1830" as="sourcePoint" />
            <mxPoint x="399.5" y="1790" as="targetPoint" />
          </mxGeometry>
        </mxCell>
        <mxCell id="YH4AmQAngbtuhGDWuZf4-17" value="Цикл 3&lt;div&gt;i &amp;lt; lenS1 + 1&lt;/div&gt;" style="shape=loopLimit;whiteSpace=wrap;html=1;" vertex="1" parent="1">
          <mxGeometry x="344.5" y="1440" width="115.5" height="40" as="geometry" />
        </mxCell>
        <mxCell id="YH4AmQAngbtuhGDWuZf4-18" value="Цикл 4&lt;div&gt;j &amp;lt; lenS2 + 1&lt;/div&gt;" style="shape=loopLimit;whiteSpace=wrap;html=1;" vertex="1" parent="1">
          <mxGeometry x="347" y="1510" width="115" height="40" as="geometry" />
        </mxCell>
        <mxCell id="YH4AmQAngbtuhGDWuZf4-19" value="" style="shape=loopLimit;whiteSpace=wrap;html=1;rotation=-180;" vertex="1" parent="1">
          <mxGeometry x="342.5" y="2455" width="115.5" height="40" as="geometry" />
        </mxCell>
        <mxCell id="YH4AmQAngbtuhGDWuZf4-20" value="" style="shape=loopLimit;whiteSpace=wrap;html=1;rotation=-180;" vertex="1" parent="1">
          <mxGeometry x="342.5" y="2515" width="115.5" height="40" as="geometry" />
        </mxCell>
        <mxCell id="YH4AmQAngbtuhGDWuZf4-21" value="" style="endArrow=none;html=1;rounded=0;entryX=0.5;entryY=0;entryDx=0;entryDy=0;exitX=0.5;exitY=1;exitDx=0;exitDy=0;" edge="1" parent="1" source="YH4AmQAngbtuhGDWuZf4-20" target="YH4AmQAngbtuhGDWuZf4-19">
          <mxGeometry width="50" height="50" relative="1" as="geometry">
            <mxPoint x="344" y="2538" as="sourcePoint" />
            <mxPoint x="394" y="2488" as="targetPoint" />
          </mxGeometry>
        </mxCell>
        <mxCell id="YH4AmQAngbtuhGDWuZf4-22" value="i = i + 1" style="rounded=0;whiteSpace=wrap;html=1;" vertex="1" parent="1">
          <mxGeometry x="341" y="2290" width="120" height="60" as="geometry" />
        </mxCell>
        <mxCell id="YH4AmQAngbtuhGDWuZf4-23" value="j = j + 1" style="rounded=0;whiteSpace=wrap;html=1;" vertex="1" parent="1">
          <mxGeometry x="340.5" y="2363" width="120" height="60" as="geometry" />
        </mxCell>
        <mxCell id="YH4AmQAngbtuhGDWuZf4-25" value="" style="endArrow=none;html=1;rounded=0;exitX=0.5;exitY=0;exitDx=0;exitDy=0;entryX=0.494;entryY=0.999;entryDx=0;entryDy=0;entryPerimeter=0;" edge="1" parent="1" source="YH4AmQAngbtuhGDWuZf4-23" target="YH4AmQAngbtuhGDWuZf4-22">
          <mxGeometry width="50" height="50" relative="1" as="geometry">
            <mxPoint x="374" y="2378" as="sourcePoint" />
            <mxPoint x="404" y="2348" as="targetPoint" />
          </mxGeometry>
        </mxCell>
        <mxCell id="YH4AmQAngbtuhGDWuZf4-26" value="" style="endArrow=none;html=1;rounded=0;entryX=0.5;entryY=1;entryDx=0;entryDy=0;exitX=0.498;exitY=1.017;exitDx=0;exitDy=0;exitPerimeter=0;" edge="1" parent="1" source="YH4AmQAngbtuhGDWuZf4-19" target="YH4AmQAngbtuhGDWuZf4-23">
          <mxGeometry width="50" height="50" relative="1" as="geometry">
            <mxPoint x="374" y="2458" as="sourcePoint" />
            <mxPoint x="424" y="2408" as="targetPoint" />
          </mxGeometry>
        </mxCell>
        <mxCell id="YH4AmQAngbtuhGDWuZf4-27" value="Цикл 4" style="text;html=1;align=center;verticalAlign=middle;whiteSpace=wrap;rounded=0;" vertex="1" parent="1">
          <mxGeometry x="370.25" y="2460" width="60" height="30" as="geometry" />
        </mxCell>
        <mxCell id="YH4AmQAngbtuhGDWuZf4-28" value="Цикл 3" style="text;html=1;align=center;verticalAlign=middle;whiteSpace=wrap;rounded=0;" vertex="1" parent="1">
          <mxGeometry x="370.25" y="2520" width="60" height="30" as="geometry" />
        </mxCell>
        <mxCell id="YH4AmQAngbtuhGDWuZf4-29" value="" style="endArrow=none;html=1;rounded=0;entryX=0.5;entryY=1;entryDx=0;entryDy=0;exitX=0.483;exitY=-0.01;exitDx=0;exitDy=0;exitPerimeter=0;" edge="1" parent="1" source="YH4AmQAngbtuhGDWuZf4-18" target="YH4AmQAngbtuhGDWuZf4-17">
          <mxGeometry width="50" height="50" relative="1" as="geometry">
            <mxPoint x="370" y="1620" as="sourcePoint" />
            <mxPoint x="420" y="1570" as="targetPoint" />
          </mxGeometry>
        </mxCell>
        <mxCell id="YH4AmQAngbtuhGDWuZf4-30" value="" style="endArrow=none;html=1;rounded=0;entryX=0.5;entryY=1;entryDx=0;entryDy=0;exitX=0.519;exitY=-0.002;exitDx=0;exitDy=0;exitPerimeter=0;" edge="1" parent="1" source="YH4AmQAngbtuhGDWuZf4-17" target="YH4AmQAngbtuhGDWuZf4-3">
          <mxGeometry width="50" height="50" relative="1" as="geometry">
            <mxPoint x="370" y="1540" as="sourcePoint" />
            <mxPoint x="420" y="1490" as="targetPoint" />
          </mxGeometry>
        </mxCell>
        <mxCell id="YH4AmQAngbtuhGDWuZf4-31" value="" style="endArrow=none;html=1;rounded=0;exitX=0.5;exitY=0;exitDx=0;exitDy=0;entryX=0.5;entryY=1;entryDx=0;entryDy=0;" edge="1" parent="1" source="YH4AmQAngbtuhGDWuZf4-6" target="YH4AmQAngbtuhGDWuZf4-18">
          <mxGeometry width="50" height="50" relative="1" as="geometry">
            <mxPoint x="370" y="1600" as="sourcePoint" />
            <mxPoint x="420" y="1550" as="targetPoint" />
          </mxGeometry>
        </mxCell>
        <mxCell id="YH4AmQAngbtuhGDWuZf4-40" style="edgeStyle=orthogonalEdgeStyle;rounded=0;orthogonalLoop=1;jettySize=auto;html=1;exitX=1;exitY=0.5;exitDx=0;exitDy=0;entryX=0.5;entryY=0;entryDx=0;entryDy=0;endArrow=none;endFill=0;" edge="1" parent="1" source="YH4AmQAngbtuhGDWuZf4-32" target="YH4AmQAngbtuhGDWuZf4-33">
          <mxGeometry relative="1" as="geometry" />
        </mxCell>
        <mxCell id="YH4AmQAngbtuhGDWuZf4-32" value="i &amp;gt; 1 и j &amp;gt; 1 и&lt;div&gt;S1[i-1] = S2[j-2]&lt;/div&gt;&lt;div&gt;и S1[i-2] = S2[i]?&lt;/div&gt;" style="rhombus;whiteSpace=wrap;html=1;" vertex="1" parent="1">
          <mxGeometry x="303" y="1930" width="195" height="100" as="geometry" />
        </mxCell>
        <mxCell id="YH4AmQAngbtuhGDWuZf4-33" value="matrix[i][j] = min(&lt;div&gt;matrix[i][j],&lt;/div&gt;&lt;div&gt;matrix[i -2][j-2] + 1&lt;/div&gt;&lt;div&gt;)&lt;/div&gt;" style="rounded=0;whiteSpace=wrap;html=1;" vertex="1" parent="1">
          <mxGeometry x="498" y="2060" width="132" height="70" as="geometry" />
        </mxCell>
        <mxCell id="YH4AmQAngbtuhGDWuZf4-34" value="" style="endArrow=none;html=1;rounded=0;" edge="1" parent="1">
          <mxGeometry width="50" height="50" relative="1" as="geometry">
            <mxPoint x="240" y="2230" as="sourcePoint" />
            <mxPoint x="564" y="2230" as="targetPoint" />
          </mxGeometry>
        </mxCell>
        <mxCell id="YH4AmQAngbtuhGDWuZf4-35" value="" style="endArrow=none;html=1;rounded=0;entryX=0.5;entryY=1;entryDx=0;entryDy=0;" edge="1" parent="1" target="YH4AmQAngbtuhGDWuZf4-33">
          <mxGeometry width="50" height="50" relative="1" as="geometry">
            <mxPoint x="564" y="2230" as="sourcePoint" />
            <mxPoint x="480" y="2170" as="targetPoint" />
          </mxGeometry>
        </mxCell>
        <mxCell id="YH4AmQAngbtuhGDWuZf4-36" value="" style="endArrow=none;html=1;rounded=0;startArrow=none;startFill=0;" edge="1" parent="1">
          <mxGeometry width="50" height="50" relative="1" as="geometry">
            <mxPoint x="240" y="2230" as="sourcePoint" />
            <mxPoint x="240" y="1980" as="targetPoint" />
          </mxGeometry>
        </mxCell>
        <mxCell id="YH4AmQAngbtuhGDWuZf4-37" value="" style="endArrow=none;html=1;rounded=0;entryX=0;entryY=0.5;entryDx=0;entryDy=0;" edge="1" parent="1" target="YH4AmQAngbtuhGDWuZf4-32">
          <mxGeometry width="50" height="50" relative="1" as="geometry">
            <mxPoint x="240" y="1980" as="sourcePoint" />
            <mxPoint x="300" y="1980" as="targetPoint" />
          </mxGeometry>
        </mxCell>
        <mxCell id="YH4AmQAngbtuhGDWuZf4-38" value="" style="endArrow=none;html=1;rounded=0;exitX=0.5;exitY=0;exitDx=0;exitDy=0;entryX=0.46;entryY=0.988;entryDx=0;entryDy=0;entryPerimeter=0;" edge="1" parent="1" source="YH4AmQAngbtuhGDWuZf4-32" target="YH4AmQAngbtuhGDWuZf4-12">
          <mxGeometry width="50" height="50" relative="1" as="geometry">
            <mxPoint x="420" y="1970" as="sourcePoint" />
            <mxPoint x="470" y="1920" as="targetPoint" />
          </mxGeometry>
        </mxCell>
        <mxCell id="YH4AmQAngbtuhGDWuZf4-41" value="" style="endArrow=none;html=1;rounded=0;exitX=0.5;exitY=0;exitDx=0;exitDy=0;" edge="1" parent="1" source="YH4AmQAngbtuhGDWuZf4-22">
          <mxGeometry width="50" height="50" relative="1" as="geometry">
            <mxPoint x="400" y="2320" as="sourcePoint" />
            <mxPoint x="401" y="2230" as="targetPoint" />
          </mxGeometry>
        </mxCell>
        <mxCell id="2pjTYE03RFZwz5FG-aOC-1" value="Вернуть matrix[lenS1][lenS2]" style="rounded=0;whiteSpace=wrap;html=1;" vertex="1" parent="1">
          <mxGeometry x="338" y="2590" width="120" height="60" as="geometry" />
        </mxCell>
        <mxCell id="2pjTYE03RFZwz5FG-aOC-2" value="Конец" style="rounded=1;whiteSpace=wrap;html=1;arcSize=50;" vertex="1" parent="1">
          <mxGeometry x="332" y="2680" width="132" height="60" as="geometry" />
        </mxCell>
        <mxCell id="2pjTYE03RFZwz5FG-aOC-3" value="" style="endArrow=none;html=1;rounded=0;exitX=0.5;exitY=0;exitDx=0;exitDy=0;entryX=0.5;entryY=1;entryDx=0;entryDy=0;" edge="1" parent="1" source="2pjTYE03RFZwz5FG-aOC-2" target="2pjTYE03RFZwz5FG-aOC-1">
          <mxGeometry width="50" height="50" relative="1" as="geometry">
            <mxPoint x="400" y="2780" as="sourcePoint" />
            <mxPoint x="450" y="2730" as="targetPoint" />
          </mxGeometry>
        </mxCell>
        <mxCell id="2pjTYE03RFZwz5FG-aOC-4" value="" style="endArrow=none;html=1;rounded=0;exitX=0.5;exitY=0;exitDx=0;exitDy=0;entryX=0.519;entryY=0.013;entryDx=0;entryDy=0;entryPerimeter=0;" edge="1" parent="1" source="2pjTYE03RFZwz5FG-aOC-1" target="YH4AmQAngbtuhGDWuZf4-20">
          <mxGeometry width="50" height="50" relative="1" as="geometry">
            <mxPoint x="400" y="2550" as="sourcePoint" />
            <mxPoint x="450" y="2500" as="targetPoint" />
          </mxGeometry>
        </mxCell>
      </root>
    </mxGraphModel>
  </diagram>
  <diagram id="BjGiLym-KB010nCUFp-n" name="Страница — 6">
    <mxGraphModel dx="1831" dy="673" grid="1" gridSize="10" guides="1" tooltips="1" connect="1" arrows="1" fold="1" page="1" pageScale="1" pageWidth="827" pageHeight="1169" math="0" shadow="0">
      <root>
        <mxCell id="0" />
        <mxCell id="1" parent="0" />
        <mxCell id="fE1Yh8f8Xp79Vk69IDbF-2" value="" style="edgeStyle=orthogonalEdgeStyle;rounded=0;orthogonalLoop=1;jettySize=auto;html=1;endArrow=none;endFill=0;" parent="1" source="ojnTBXBkdrUPRHEqlQHN-1" target="ojnTBXBkdrUPRHEqlQHN-3" edge="1">
          <mxGeometry relative="1" as="geometry" />
        </mxCell>
        <mxCell id="ojnTBXBkdrUPRHEqlQHN-1" value="Начало" style="rounded=1;whiteSpace=wrap;html=1;arcSize=50;" parent="1" vertex="1">
          <mxGeometry x="354" y="30" width="150" height="60" as="geometry" />
        </mxCell>
        <mxCell id="ojnTBXBkdrUPRHEqlQHN-5" style="edgeStyle=orthogonalEdgeStyle;rounded=0;orthogonalLoop=1;jettySize=auto;html=1;entryX=0.5;entryY=0;entryDx=0;entryDy=0;" parent="1" source="ojnTBXBkdrUPRHEqlQHN-3" target="ojnTBXBkdrUPRHEqlQHN-4" edge="1">
          <mxGeometry relative="1" as="geometry" />
        </mxCell>
        <mxCell id="ojnTBXBkdrUPRHEqlQHN-11" style="edgeStyle=orthogonalEdgeStyle;rounded=0;orthogonalLoop=1;jettySize=auto;html=1;exitX=0;exitY=0.5;exitDx=0;exitDy=0;entryX=0.5;entryY=0;entryDx=0;entryDy=0;" parent="1" source="ojnTBXBkdrUPRHEqlQHN-3" target="ojnTBXBkdrUPRHEqlQHN-7" edge="1">
          <mxGeometry relative="1" as="geometry" />
        </mxCell>
        <mxCell id="ojnTBXBkdrUPRHEqlQHN-3" value="lenS1 = 0?" style="rhombus;whiteSpace=wrap;html=1;" parent="1" vertex="1">
          <mxGeometry x="364" y="130" width="130" height="80" as="geometry" />
        </mxCell>
        <mxCell id="MK2wktFHdc1Hp_JpARXq-8" style="edgeStyle=orthogonalEdgeStyle;rounded=0;orthogonalLoop=1;jettySize=auto;html=1;endArrow=none;endFill=0;" edge="1" parent="1" source="ojnTBXBkdrUPRHEqlQHN-4">
          <mxGeometry relative="1" as="geometry">
            <mxPoint x="580" y="880" as="targetPoint" />
          </mxGeometry>
        </mxCell>
        <mxCell id="ojnTBXBkdrUPRHEqlQHN-4" value="Вернуть lenS2" style="rounded=0;whiteSpace=wrap;html=1;" parent="1" vertex="1">
          <mxGeometry x="520" y="210" width="120" height="60" as="geometry" />
        </mxCell>
        <mxCell id="ojnTBXBkdrUPRHEqlQHN-6" value="Да" style="text;html=1;align=center;verticalAlign=middle;whiteSpace=wrap;rounded=0;" parent="1" vertex="1">
          <mxGeometry x="530" y="140" width="60" height="30" as="geometry" />
        </mxCell>
        <mxCell id="ojnTBXBkdrUPRHEqlQHN-10" style="edgeStyle=orthogonalEdgeStyle;rounded=0;orthogonalLoop=1;jettySize=auto;html=1;" parent="1" source="ojnTBXBkdrUPRHEqlQHN-7" target="ojnTBXBkdrUPRHEqlQHN-8" edge="1">
          <mxGeometry relative="1" as="geometry" />
        </mxCell>
        <mxCell id="2Nlf1urWDpcpS1bEoa0R-2" style="edgeStyle=orthogonalEdgeStyle;rounded=0;orthogonalLoop=1;jettySize=auto;html=1;exitX=0;exitY=0.5;exitDx=0;exitDy=0;entryX=0.5;entryY=0;entryDx=0;entryDy=0;" parent="1" source="ojnTBXBkdrUPRHEqlQHN-7" target="2Nlf1urWDpcpS1bEoa0R-1" edge="1">
          <mxGeometry relative="1" as="geometry" />
        </mxCell>
        <mxCell id="ojnTBXBkdrUPRHEqlQHN-7" value="lenS2 = 0?" style="rhombus;whiteSpace=wrap;html=1;" parent="1" vertex="1">
          <mxGeometry x="249" y="210" width="130" height="80" as="geometry" />
        </mxCell>
        <mxCell id="MK2wktFHdc1Hp_JpARXq-5" style="edgeStyle=orthogonalEdgeStyle;rounded=0;orthogonalLoop=1;jettySize=auto;html=1;endArrow=none;endFill=0;" edge="1" parent="1" source="ojnTBXBkdrUPRHEqlQHN-8">
          <mxGeometry relative="1" as="geometry">
            <mxPoint x="440" y="860" as="targetPoint" />
          </mxGeometry>
        </mxCell>
        <mxCell id="ojnTBXBkdrUPRHEqlQHN-8" value="Вернуть lenS1" style="rounded=0;whiteSpace=wrap;html=1;" parent="1" vertex="1">
          <mxGeometry x="380" y="308" width="120" height="60" as="geometry" />
        </mxCell>
        <mxCell id="ojnTBXBkdrUPRHEqlQHN-12" value="Да" style="text;html=1;align=center;verticalAlign=middle;whiteSpace=wrap;rounded=0;" parent="1" vertex="1">
          <mxGeometry x="399" y="225" width="60" height="30" as="geometry" />
        </mxCell>
        <mxCell id="EsixifXX6Ipd4rOnJO3N-1" style="edgeStyle=orthogonalEdgeStyle;rounded=0;orthogonalLoop=1;jettySize=auto;html=1;entryX=0.5;entryY=0;entryDx=0;entryDy=0;" parent="1" source="2Nlf1urWDpcpS1bEoa0R-1" target="2Nlf1urWDpcpS1bEoa0R-3" edge="1">
          <mxGeometry relative="1" as="geometry" />
        </mxCell>
        <mxCell id="EsixifXX6Ipd4rOnJO3N-5" style="edgeStyle=orthogonalEdgeStyle;rounded=0;orthogonalLoop=1;jettySize=auto;html=1;exitX=0;exitY=0.5;exitDx=0;exitDy=0;entryX=0.5;entryY=0;entryDx=0;entryDy=0;" parent="1" source="2Nlf1urWDpcpS1bEoa0R-1" target="EsixifXX6Ipd4rOnJO3N-4" edge="1">
          <mxGeometry relative="1" as="geometry" />
        </mxCell>
        <mxCell id="2Nlf1urWDpcpS1bEoa0R-1" value="memo[lenS1][lenS2] = -1" style="rhombus;whiteSpace=wrap;html=1;" parent="1" vertex="1">
          <mxGeometry x="55" y="371" width="180" height="99" as="geometry" />
        </mxCell>
        <mxCell id="MK2wktFHdc1Hp_JpARXq-2" style="edgeStyle=orthogonalEdgeStyle;rounded=0;orthogonalLoop=1;jettySize=auto;html=1;endArrow=none;endFill=0;" edge="1" parent="1" source="2Nlf1urWDpcpS1bEoa0R-3">
          <mxGeometry relative="1" as="geometry">
            <mxPoint x="314" y="840" as="targetPoint" />
          </mxGeometry>
        </mxCell>
        <mxCell id="2Nlf1urWDpcpS1bEoa0R-3" value="Вернуть memo[lenS1][lenS2]" style="rounded=0;whiteSpace=wrap;html=1;" parent="1" vertex="1">
          <mxGeometry x="254" y="460" width="120" height="60" as="geometry" />
        </mxCell>
        <mxCell id="C9m822KxgaIs7tt2ePcZ-3" style="edgeStyle=orthogonalEdgeStyle;rounded=0;orthogonalLoop=1;jettySize=auto;html=1;exitX=0;exitY=0.5;exitDx=0;exitDy=0;entryX=0.5;entryY=0;entryDx=0;entryDy=0;" edge="1" parent="1" source="EsixifXX6Ipd4rOnJO3N-4" target="C9m822KxgaIs7tt2ePcZ-1">
          <mxGeometry relative="1" as="geometry" />
        </mxCell>
        <mxCell id="C9m822KxgaIs7tt2ePcZ-4" style="edgeStyle=orthogonalEdgeStyle;rounded=0;orthogonalLoop=1;jettySize=auto;html=1;entryX=0.5;entryY=0;entryDx=0;entryDy=0;" edge="1" parent="1" source="EsixifXX6Ipd4rOnJO3N-4" target="C9m822KxgaIs7tt2ePcZ-2">
          <mxGeometry relative="1" as="geometry" />
        </mxCell>
        <mxCell id="EsixifXX6Ipd4rOnJO3N-4" value="S1[lenS1-1] = S2[lenS2-1]" style="rhombus;whiteSpace=wrap;html=1;" parent="1" vertex="1">
          <mxGeometry x="-81" y="453" width="171" height="107" as="geometry" />
        </mxCell>
        <mxCell id="4U8lrEkH5Wa6sn4BgY-U-5" style="edgeStyle=orthogonalEdgeStyle;rounded=0;orthogonalLoop=1;jettySize=auto;html=1;endArrow=none;endFill=0;" edge="1" parent="1" source="C9m822KxgaIs7tt2ePcZ-1">
          <mxGeometry relative="1" as="geometry">
            <mxPoint x="-131" y="680" as="targetPoint" />
          </mxGeometry>
        </mxCell>
        <mxCell id="C9m822KxgaIs7tt2ePcZ-1" value="cost = 1" style="rounded=0;whiteSpace=wrap;html=1;" vertex="1" parent="1">
          <mxGeometry x="-191" y="570" width="120" height="60" as="geometry" />
        </mxCell>
        <mxCell id="4U8lrEkH5Wa6sn4BgY-U-3" style="edgeStyle=orthogonalEdgeStyle;rounded=0;orthogonalLoop=1;jettySize=auto;html=1;endArrow=none;endFill=0;" edge="1" parent="1" source="C9m822KxgaIs7tt2ePcZ-2">
          <mxGeometry relative="1" as="geometry">
            <mxPoint x="153" y="680" as="targetPoint" />
          </mxGeometry>
        </mxCell>
        <mxCell id="C9m822KxgaIs7tt2ePcZ-2" value="cost = 0" style="rounded=0;whiteSpace=wrap;html=1;" vertex="1" parent="1">
          <mxGeometry x="93" y="570" width="120" height="60" as="geometry" />
        </mxCell>
        <mxCell id="C9m822KxgaIs7tt2ePcZ-5" value="Да" style="text;html=1;align=center;verticalAlign=middle;whiteSpace=wrap;rounded=0;" vertex="1" parent="1">
          <mxGeometry x="110" y="478" width="60" height="30" as="geometry" />
        </mxCell>
        <mxCell id="C9m822KxgaIs7tt2ePcZ-6" value="Да" style="text;html=1;align=center;verticalAlign=middle;whiteSpace=wrap;rounded=0;" vertex="1" parent="1">
          <mxGeometry x="270" y="390" width="60" height="30" as="geometry" />
        </mxCell>
        <mxCell id="MK2wktFHdc1Hp_JpARXq-3" style="edgeStyle=orthogonalEdgeStyle;rounded=0;orthogonalLoop=1;jettySize=auto;html=1;endArrow=none;endFill=0;" edge="1" parent="1">
          <mxGeometry relative="1" as="geometry">
            <mxPoint x="0.5" y="840" as="targetPoint" />
            <mxPoint x="0.4961240310077528" y="810" as="sourcePoint" />
          </mxGeometry>
        </mxCell>
        <mxCell id="4U8lrEkH5Wa6sn4BgY-U-1" value="&lt;font style=&quot;font-size: 11px;&quot;&gt;Вернуть fmin(&lt;/font&gt;&lt;div style=&quot;font-size: 11px;&quot;&gt;&lt;font style=&quot;font-size: 11px;&quot;&gt;fmin(&lt;/font&gt;&lt;/div&gt;&lt;div style=&quot;font-size: 11px;&quot;&gt;&lt;font style=&quot;font-size: 11px;&quot;&gt;Л(S1, S2, lenS1 - 1, lenS2, memo) + 1,&amp;nbsp; Л(S1, S2, lenS1, lenS2 - 1, memo) + 1&lt;span style=&quot;background-color: initial;&quot;&gt;),&lt;/span&gt;&lt;/font&gt;&lt;/div&gt;&lt;div style=&quot;font-size: 11px;&quot;&gt;&lt;font style=&quot;font-size: 11px;&quot;&gt;Л(S1, S2, lenS1 - 1, lenS2 - 1, memo) + cost)&amp;nbsp;&lt;/font&gt;&lt;/div&gt;" style="rounded=0;whiteSpace=wrap;html=1;" vertex="1" parent="1">
          <mxGeometry x="-99.5" y="720" width="210" height="90" as="geometry" />
        </mxCell>
        <mxCell id="4U8lrEkH5Wa6sn4BgY-U-2" value="" style="endArrow=none;html=1;rounded=0;" edge="1" parent="1">
          <mxGeometry width="50" height="50" relative="1" as="geometry">
            <mxPoint x="-131" y="680" as="sourcePoint" />
            <mxPoint x="154" y="680" as="targetPoint" />
          </mxGeometry>
        </mxCell>
        <mxCell id="4U8lrEkH5Wa6sn4BgY-U-6" value="" style="endArrow=classic;html=1;rounded=0;entryX=0.5;entryY=0;entryDx=0;entryDy=0;" edge="1" parent="1" target="4U8lrEkH5Wa6sn4BgY-U-1">
          <mxGeometry width="50" height="50" relative="1" as="geometry">
            <mxPoint x="5" y="680" as="sourcePoint" />
            <mxPoint x="-110" y="620" as="targetPoint" />
          </mxGeometry>
        </mxCell>
        <mxCell id="MK2wktFHdc1Hp_JpARXq-1" value="" style="endArrow=none;html=1;rounded=0;" edge="1" parent="1">
          <mxGeometry width="50" height="50" relative="1" as="geometry">
            <mxPoint y="840" as="sourcePoint" />
            <mxPoint x="315" y="840" as="targetPoint" />
          </mxGeometry>
        </mxCell>
        <mxCell id="MK2wktFHdc1Hp_JpARXq-4" value="" style="endArrow=none;html=1;rounded=0;" edge="1" parent="1">
          <mxGeometry width="50" height="50" relative="1" as="geometry">
            <mxPoint x="150" y="860" as="sourcePoint" />
            <mxPoint x="440" y="860" as="targetPoint" />
          </mxGeometry>
        </mxCell>
        <mxCell id="MK2wktFHdc1Hp_JpARXq-6" value="" style="endArrow=none;html=1;rounded=0;" edge="1" parent="1">
          <mxGeometry width="50" height="50" relative="1" as="geometry">
            <mxPoint x="150" y="860" as="sourcePoint" />
            <mxPoint x="150" y="840" as="targetPoint" />
          </mxGeometry>
        </mxCell>
        <mxCell id="MK2wktFHdc1Hp_JpARXq-7" value="" style="endArrow=none;html=1;rounded=0;" edge="1" parent="1">
          <mxGeometry width="50" height="50" relative="1" as="geometry">
            <mxPoint x="310" y="880" as="sourcePoint" />
            <mxPoint x="580" y="880" as="targetPoint" />
          </mxGeometry>
        </mxCell>
        <mxCell id="MK2wktFHdc1Hp_JpARXq-9" value="" style="endArrow=none;html=1;rounded=0;" edge="1" parent="1">
          <mxGeometry width="50" height="50" relative="1" as="geometry">
            <mxPoint x="310" y="880" as="sourcePoint" />
            <mxPoint x="310" y="860" as="targetPoint" />
          </mxGeometry>
        </mxCell>
        <mxCell id="MK2wktFHdc1Hp_JpARXq-10" value="Конец" style="rounded=1;whiteSpace=wrap;html=1;arcSize=50;" vertex="1" parent="1">
          <mxGeometry x="355" y="920" width="150" height="60" as="geometry" />
        </mxCell>
        <mxCell id="MK2wktFHdc1Hp_JpARXq-11" value="" style="endArrow=none;html=1;rounded=0;exitX=0.5;exitY=0;exitDx=0;exitDy=0;" edge="1" parent="1" source="MK2wktFHdc1Hp_JpARXq-10">
          <mxGeometry width="50" height="50" relative="1" as="geometry">
            <mxPoint x="320" y="950" as="sourcePoint" />
            <mxPoint x="430" y="880" as="targetPoint" />
          </mxGeometry>
        </mxCell>
      </root>
    </mxGraphModel>
  </diagram>
</mxfile>
